HIERARCHY
ROOT pelvis
{
  OFFSET 0 100 0
  CHANNELS 6 Xposition Yposition Zposition Zrotation Xrotation Yrotation
  JOINT pelvis_right_femur
  {
    OFFSET -10.78128 -3.44521 -0.5502486
    CHANNELS 3 Zrotation Xrotation Yrotation
    JOINT right_femur_tibia
    {
      OFFSET -0.8047443 -44.0398 -0.1307829
      CHANNELS 3 Zrotation Xrotation Yrotation
      JOINT right_tibia_foot
      {
        OFFSET 3.006224 -47.83518 -5
        CHANNELS 3 Zrotation Xrotation Yrotation
        End Site
        {
          OFFSET 0 -5 15
        }
      }
    }
  }
  JOINT pelvis_left_femur
  {
    OFFSET 10.78128 -3.44521 -0.5502486
    CHANNELS 3 Zrotation Xrotation Yrotation
    JOINT left_femur_tibia
    {
      OFFSET 0.8047443 -44.0398 -0.1307829
      CHANNELS 3 Zrotation Xrotation Yrotation
      JOINT left_tibia_foot
      {
        OFFSET -4.370144 -48.10324 -4.275266
        CHANNELS 3 Zrotation Xrotation Yrotation
        End Site
        {
          OFFSET 0 -5 15
        }
      }
    }
  }
  JOINT pelvis_spine1
  {
    OFFSET 0 6.468898 -3.129235
    CHANNELS 3 Zrotation Xrotation Yrotation
    JOINT spine1
    {
      OFFSET 0 23.15396 4.99043
      CHANNELS 3 Zrotation Xrotation Yrotation
      JOINT spine2
      {
        OFFSET 0 20.79997 -5.064912
        CHANNELS 3 Zrotation Xrotation Yrotation
        JOINT neck
        {
          OFFSET 0 14.38658 9.616178
          CHANNELS 3 Zrotation Xrotation Yrotation
          End Site
          {
            OFFSET 0 20 0
          }
        }
      }
      JOINT right_manubrium
      {
        OFFSET -5.722621 16.35077 3.967754
        CHANNELS 3 Zrotation Xrotation Yrotation
        JOINT right_clavicle
        {
          OFFSET -13.16364 1.694482 -4.693211
          CHANNELS 3 Zrotation Xrotation Yrotation
          JOINT right_humerus
          {
            OFFSET -28.5034 -0.3100689 -2.792744
            CHANNELS 3 Zrotation Xrotation Yrotation
            JOINT right_radius
            {
              OFFSET -25.15693 0.02248979 -1.271978
              CHANNELS 3 Zrotation Xrotation Yrotation
              End Site
              {
                OFFSET -15 0 0
              }
            }
          }
        }
      }
      JOINT left_manubrium
      {
        OFFSET 5.722621 16.35077 3.967754
        CHANNELS 3 Zrotation Xrotation Yrotation
        JOINT left_clavicle
        {
          OFFSET 13.16364 1.694482 -4.693211
          CHANNELS 3 Zrotation Xrotation Yrotation
          JOINT left_humerus
          {
            OFFSET 29.39168 -1.063119 -2.237045
            CHANNELS 3 Zrotation Xrotation Yrotation
            JOINT left_radius
            {
              OFFSET 24.59957 -0.9528479 0.9047498
              CHANNELS 3 Zrotation Xrotation Yrotation
              End Site
              {
                OFFSET 15 -0 -0
              }
            }
          }
        }
      }
    }
  }
}
MOTION
Frames: 15
Frame Time: 0.0416666666667
-1625.016 100.0436 -33.33024 3.317545 6.438639 157.7919 3.443102 15.76827 -1.700008 -0 18.43342 -0 -12.24519 -14.80803 0.7638794 2.630636 -18.24019 -5.890179 -0 8.601952 -0 -1.146389 0.4336901 16.05679 0.5991949 -3.462915 7.422945 -0.2038036 13.46263 -4.339157 -0.1914687 20.67553 6.009094 5.010111 -14.42897 3.727313 3.407412 -26.71604 12.47562 81.54168 25.06387 -6.696949 -0 0 26.90815 -23.63943 14.56625 13.64885 4.415328 -22.16815 -6.982971 -96.82507 8.732107 35.5529 0 0 -0.09102152 8.861897 14.59677 1.466283
-1624.162 99.32788 -39.49277 3.145008 6.833844 157.1263 2.674853 15.42754 -2.470584 -0 19.84979 -0 -13.01962 -13.69421 1.302877 1.830072 -17.33517 -6.795187 -0 9.331681 -0 -1.707756 0.6200493 16.05072 0.3980422 -3.305218 7.3998 -0.4887822 13.28422 -4.0772 -0.2852599 21.00026 6.509171 5.874717 -13.49217 3.454123 3.815081 -26.00787 12.34655 81.27216 26.03342 -6.735079 -0 0 26.25546 -23.92481 13.67509 13.217 4.738449 -22.24287 -7.280743 -96.35625 8.061474 34.63431 -0 0 0.2518938 9.559077 14.3982 0.291671
-1623.265 98.73934 -45.70724 2.936625 7.277027 156.4947 1.812793 15.05779 -3.309955 -0 21.38461 -0 -13.83111 -12.40581 1.92901 0.9425688 -16.37816 -7.84943 -0 10.15818 -0 -2.268269 0.7104403 16.09641 0.1631528 -3.070174 7.325757 -0.8487417 13.03528 -3.726659 -0.3316338 21.40659 7.028564 6.744162 -12.5492 3.243063 4.181617 -25.15575 12.16456 81.03129 27.20639 -6.679509 -0 0 25.40508 -24.30198 12.74967 12.84483 5.085166 -22.20653 -7.545805 -95.74864 7.478147 33.44183 -0 0 0.4342352 10.34555 14.23684 -0.9876876
-1622.32 98.28508 -51.96203 2.696172 7.78076 155.9156 0.8434529 14.6718 -4.221606 -0 23.12129 -0 -14.69343 -10.89763 2.657157 -0.03843327 -15.32828 -9.087715 -0 11.04489 -0 -2.822609 0.6891657 16.2114 -0.1059628 -2.752931 7.181043 -1.294781 12.70318 -3.269724 -0.3174695 21.91265 7.565872 7.606952 -11.60312 3.117976 4.497842 -24.13801 11.92095 80.83134 28.5749 -6.506586 -0 0 24.32079 -24.79006 11.79679 12.55138 5.457939 -22.03311 -7.772158 -95.00008 6.988444 31.9411 -0 0 0.4834994 11.25375 14.14553 -2.404514
-1621.32 97.97615 -58.24283 2.430168 8.368066 155.4132 -0.2427495 14.26074 -5.201884 -0 25.1837 -0 -15.62746 -9.080197 3.499935 -1.11685 -14.11713 -10.53486 -0 11.97781 -0 -3.344417 0.5342605 16.41054 -0.4103466 -2.351901 6.942588 -1.835982 12.28857 -2.695121 -0.2270214 22.53332 8.11001 8.44391 -10.6655 3.10024 4.74879 -22.94216 11.61433 80.70784 30.09314 -6.214548 -0 0 22.96273 -25.40953 10.82839 12.35767 5.852261 -21.70657 -7.964742 -94.10095 6.596322 30.09307 -0 0 0.4027782 12.3189 14.15529 -3.988827
-1620.261 97.83028 -64.52885 2.150481 9.062842 155.0189 -1.441711 13.78404 -6.227426 -0 27.74163 -0 -16.65698 -6.825819 4.463353 -2.282185 -12.65504 -12.19107 -0 12.95341 -0 -3.777253 0.2146708 16.70494 -0.749451 -1.87278 6.583679 -2.474063 11.81053 -2.004853 -0.04282112 23.27384 8.636413 9.221406 -9.769704 3.210766 4.917066 -21.57311 11.25672 80.72037 31.66951 -5.831617 -0 0 21.29524 -26.1757 9.874222 12.2878 6.253629 -21.22753 -8.135716 -93.04181 6.309571 27.86631 -0 0 0.1694081 13.5764 14.2976 -5.758829
-1619.138 97.87367 -70.78575 1.877913 9.8727 154.7721 -2.71715 13.14842 -7.235547 -0 31.00632 -0 -17.79863 -3.989151 5.535896 -3.492263 -10.84766 -14.00533 -0 13.96793 -0 -4.023191 -0.3109079 17.09838 -1.117019 -1.336652 6.077326 -3.19309 11.31817 -1.228515 0.249303 24.11622 9.103738 9.884969 -8.989834 3.468548 4.991287 -20.06989 10.88438 80.95036 33.15595 -5.433111 -0 0 19.30632 -27.08574 9.001449 12.36511 6.634587 -20.63134 -8.299809 -91.8285 6.146892 25.26415 0 0 -0.2642582 15.05464 14.60521 -7.704975
-1617.952 98.13982 -76.95468 1.64562 10.75724 154.7161 -3.971047 12.17423 -8.098772 -0 35.1856 -0 -19.03662 -0.4700709 6.665695 -4.653151 -8.638208 -15.83632 -0 15.00258 -0 -3.937547 -1.090312 17.57979 -1.493829 -0.7922944 5.40837 -3.941977 10.90717 -0.4480156 0.6459663 24.9953 9.456816 10.35877 -8.462969 3.881784 4.983953 -18.53269 10.57177 81.48278 34.34897 -5.163389 -0 0 17.04806 -28.09458 8.338563 12.59809 6.954865 -20.02058 -8.465988 -90.50866 6.145616 22.37601 0 0 -0.9631914 16.75641 15.10547 -9.762183
-1616.718 98.65891 -82.93922 1.499196 11.5834 154.8833 -5.011428 10.56832 -8.610654 -0 40.33109 -0 -20.26538 3.639516 7.719243 -5.611571 -6.085042 -17.42056 -0 15.99198 -0 -3.354142 -2.165999 18.11377 -1.837351 -0.3256495 4.599622 -4.612504 10.72607 0.1743448 1.099293 25.77154 9.64612 10.56042 -8.396322 4.429199 4.954632 -17.15064 10.43646 82.3541 35.02543 -5.241133 -0 0 14.69992 -29.08128 8.081029 12.95158 7.172548 -19.59712 -8.623164 -89.20746 6.36516 19.44766 0 0 -1.984802 18.61796 15.79823 -11.7697
-1615.47 99.42468 -88.60426 1.486705 12.10619 155.2692 -5.557904 7.970036 -8.531815 -0 45.99349 -0 -21.1942 7.823616 8.427007 -6.191574 -3.430106 -18.40996 -0 16.75199 -0 -2.177386 -3.560773 18.63769 -2.075245 -0.04402635 3.745708 -5.030411 10.92773 0.4001605 1.494119 26.23737 9.663226 10.43175 -9.014401 5.04312 5.000052 -16.19276 10.60243 83.47929 35.01201 -5.905055 -0 0 12.61514 -29.8241 8.413464 13.31397 7.275599 -19.63116 -8.725638 -88.14524 6.871455 16.90963 0 0 -3.334161 20.43882 16.61522 -13.43364
-1614.263 100.3325 -93.81607 1.626255 12.06293 155.8137 -5.363565 4.141172 -7.75586 -0 50.76451 -0 -21.30204 11.01998 8.386892 -6.298794 -1.000128 -18.55418 -0 16.87635 -0 -0.5243198 -5.294331 19.07657 -2.128114 -0.007433471 3.016036 -4.997778 11.51903 0.01681987 1.691843 26.21929 9.5426 9.952486 -10.40963 5.630374 5.131368 -15.90289 11.08869 84.66506 34.20191 -7.278615 -0 0 11.23094 -30.01979 9.277244 13.50057 7.322095 -20.27729 -8.700703 -87.56088 7.690682 15.21568 0 0 -4.959546 21.81779 17.38432 -14.34189
-1613.137 101.1317 -98.53366 1.843598 11.37369 156.424 -4.452479 -0.8576419 -6.524943 -0 52.29385 -0 -20.09381 12.04044 7.301872 -6.04351 1.154856 -17.93885 -0 15.78982 -0 1.254057 -7.461764 19.36511 -1.992861 -0.1423103 2.577361 -4.406556 12.20528 -0.9728522 1.676635 25.74326 9.270638 9.106693 -12.40144 6.142019 5.084763 -16.31013 11.68445 85.80187 32.49089 -9.247691 -0 0 10.75158 -29.36128 10.14582 13.32093 7.429922 -21.33554 -8.493512 -87.48154 8.779103 14.43015 0 0 -6.927283 22.23533 17.84671 -14.11739
-1612.073 101.4959 -102.8755 1.937734 10.14976 157.0249 -3.181933 -6.851004 -5.374472 -0 48.54498 -0 -17.6365 10.54904 5.393149 -5.731605 3.454548 -16.92957 -0 13.26999 -0 2.812537 -10.24666 19.43822 -1.820739 -0.2734057 2.482855 -3.333826 12.52652 -2.300313 1.616582 25.02411 8.742529 7.902645 -14.64404 6.595783 4.456622 -17.12683 12.02151 86.97423 30.00815 -11.54116 -0 0 10.87807 -27.65295 10.31147 12.64437 7.681086 -22.37075 -8.102 -87.54457 10.08306 13.99717 0 0 -9.663541 21.40571 17.73092 -12.71584
-1610.98 101.219 -107.0721 1.699305 8.402964 157.5768 -1.87428 -13.77326 -4.667205 -0 39.5274 -0 -14.60961 7.524696 3.353622 -5.636201 6.305222 -15.77816 -0 10.15502 -0 4.007652 -13.64431 19.20177 -1.809546 -0.2966667 2.655518 -1.981175 12.2749 -3.676361 1.651966 24.20887 7.952537 6.509247 -16.91137 6.997793 3.262897 -17.88923 11.893 88.20567 27.64024 -13.98659 -0 0 11.04588 -24.93788 9.617788 11.41333 8.048284 -23.17928 -7.548115 -87.27243 11.5895 13.24601 0 0 -13.66417 19.60123 16.85979 -10.58242
-1609.741 100.3739 -111.36 1.122913 5.967523 158.05 -0.4268843 -21.30281 -4.223873 -0 27.50644 -0 -11.73534 4.494841 1.790498 -5.775116 9.535731 -14.46522 -0 8.39319 -0 4.730691 -17.10906 18.53133 -1.962478 -0.2745534 2.953089 -0.5339137 11.65284 -5.007256 1.707174 23.26609 7.142268 5.263428 -19.15788 7.312299 2.129903 -18.22018 11.43661 89.25658 26.77089 -16.60494 -0 0 10.91096 -21.51842 8.653779 9.660653 8.421326 -23.87342 -6.842556 -86.60469 13.2917 12.13824 0 0 -18.68823 17.47646 15.3052 -8.368092
